<?xml version="1.0" encoding="utf-8"?>
<!-- Generator: Adobe Illustrator 19.2.1, SVG Export Plug-In . SVG Version: 6.00 Build 0)  -->
<svg version="1.1" id="Layer_1" xmlns="http://www.w3.org/2000/svg" xmlns:xlink="http://www.w3.org/1999/xlink" x="0px" y="0px"
	 viewBox="0 0 313 386" style="enable-background:new 0 0 313 386;" xml:space="preserve">
<style type="text/css">
	.st0{clip-path:url(#SVGID_2_);fill:#222221;}
	.st1{fill:#222221;}
</style>
<g>
	<g>
		<defs>
			<rect id="SVGID_1_" width="313" height="386"/>
		</defs>
		<clipPath id="SVGID_2_">
			<use xlink:href="#SVGID_1_"  style="overflow:visible;"/>
		</clipPath>
		<path class="st0" d="M268,46.2h-60.1C204.9,20.2,182.8,0,156,0c-26.8,0-48.9,20.3-51.9,46.2H44.1C19.8,46.2,0,66,0,90.3v2.3
			c0,18.6,11.6,34.5,27.9,41v208.3c0,24.3,19.8,44.1,44.1,44.1h168.2c24.3,0,44.1-19.8,44.1-44.1V133.5c16.3-6.5,27.9-22.4,27.9-41
			v-2.3C312.1,66,292.3,46.2,268,46.2L268,46.2z M156,20.9c15.2,0,27.9,10.9,30.8,25.3h-61.5C128.1,31.8,140.8,20.9,156,20.9
			L156,20.9z M263.3,341.8c0,12.8-10.4,23.2-23.2,23.2H72c-12.8,0-23.2-10.4-23.2-23.2V136.7h214.5V341.8z M291.2,92.6
			c0,12.8-10.4,23.2-23.2,23.2H44.1c-12.8,0-23.2-10.4-23.2-23.2v-2.3c0-12.8,10.4-23.2,23.2-23.2H268c12.8,0,23.2,10.4,23.2,23.2
			V92.6z M291.2,92.6"/>
	</g>
	<path class="st1" d="M100,338.3c5.8,0,10.5-4.7,10.5-10.5V210.1c0-5.8-4.7-10.5-10.5-10.5c-5.8,0-10.5,4.7-10.5,10.5v117.7
		C89.5,333.6,94.2,338.3,100,338.3L100,338.3z M100,338.3"/>
	<path class="st1" d="M156,338.3c5.8,0,10.5-4.7,10.5-10.5V210.1c0-5.8-4.7-10.5-10.5-10.5c-5.8,0-10.5,4.7-10.5,10.5v117.7
		C145.6,333.6,150.3,338.3,156,338.3L156,338.3z M156,338.3"/>
	<path class="st1" d="M212.1,338.3c5.8,0,10.5-4.7,10.5-10.5V210.1c0-5.8-4.7-10.5-10.5-10.5c-5.8,0-10.5,4.7-10.5,10.5v117.7
		C201.6,333.6,206.3,338.3,212.1,338.3L212.1,338.3z M212.1,338.3"/>
</g>
</svg>
