<?xml version="1.0" encoding="utf-8"?>
<!-- Generator: Adobe Illustrator 19.2.1, SVG Export Plug-In . SVG Version: 6.00 Build 0)  -->
<svg version="1.1" id="Layer_1" xmlns="http://www.w3.org/2000/svg" xmlns:xlink="http://www.w3.org/1999/xlink" x="0px" y="0px"
	 viewBox="0 0 319.3 298.5" style="enable-background:new 0 0 319.3 298.5;" xml:space="preserve">
<g>
	<path d="M135,48c0,26.5-21.5,48-48,48S39,74.5,39,48C39,21.5,60.5,0,87,0S135,21.5,135,48L135,48z M135,48"/>
	<path d="M153.9,151.4c-16-19.2-40-31.4-66.9-31.4c-48,0-87,39-87,87h98.3L153.9,151.4z M153.9,151.4"/>
	<path d="M240.3,99L271.2,68l48.1,48.1L288.4,147L240.3,99z M240.3,99"/>
	<path d="M88.8,298.5l54.8-16l-38.8-38.8L88.8,298.5z M88.8,298.5"/>
	<path d="M117.1,222.2l106.2-106.2l48.1,48.1L165.2,270.2L117.1,222.2z M117.1,222.2"/>
</g>
</svg>
