<?xml version="1.0" encoding="utf-8"?>
<!-- Generator: Adobe Illustrator 19.2.1, SVG Export Plug-In . SVG Version: 6.00 Build 0)  -->
<svg version="1.1" id="Layer_1" xmlns="http://www.w3.org/2000/svg" xmlns:xlink="http://www.w3.org/1999/xlink" x="0px" y="0px"
	 viewBox="0 0 28.6 19.5" style="enable-background:new 0 0 28.6 19.5;" xml:space="preserve">
<g>
	<path d="M24.7,8.5c0.1-0.5,0.2-1.1,0.2-1.7c0-3.7-3-6.8-6.8-6.8c-4.3,0-4.9,3.3-4.9,3.3s-1.8-2.2-5-1.9C5.4,2,3.5,4.6,3.5,7.2
		c0,0.5,0.1,0.9,0.2,1.3C1.5,9.3,0,11.4,0,13.8c0,3.1,2.5,5.6,5.6,5.6H23c3.1,0,5.6-2.5,5.6-5.6C28.6,11.3,27,9.2,24.7,8.5L24.7,8.5
		z M14.4,19.4l-5.3-5.2h2.6V6.7H17v7.5h2.6L14.4,19.4z M14.4,19.4"/>
</g>
</svg>
